<svg width="1200" height="760" viewBox="0 0 1200 760" fill="none" xmlns="http://www.w3.org/2000/svg">
  <defs>
    <linearGradient id="sky" x1="0" y1="0" x2="0" y2="760" gradientUnits="userSpaceOnUse">
      <stop stop-color="#DDEEFE"/>
      <stop offset="1" stop-color="#F8FBFF"/>
    </linearGradient>
    <linearGradient id="roof" x1="0" y1="0" x2="900" y2="420" gradientUnits="userSpaceOnUse">
      <stop stop-color="#223044"/>
      <stop offset="1" stop-color="#56677D"/>
    </linearGradient>
    <filter id="shadow" x="-20%" y="-20%" width="140%" height="140%">
      <feDropShadow dx="0" dy="24" stdDeviation="22" flood-color="#0F172A" flood-opacity="0.20"/>
    </filter>
  </defs>
  <rect width="1200" height="760" rx="38" fill="url(#sky)"/>
  <circle cx="108" cy="92" r="48" fill="#FBBF24" opacity="0.9"/>
  <path d="M0 606C124 554 227 584 354 525C482 466 570 353 744 388C919 423 973 562 1200 500V760H0V606Z" fill="#CFE1F2" opacity="0.65"/>
  <g filter="url(#shadow)">
    <path d="M152 490L593 203L1041 490H152Z" fill="url(#roof)"/>
    <path d="M107 510H1088L1014 610H181L107 510Z" fill="#F8FAFC"/>
    <path d="M185 510H1013L957 585H242L185 510Z" fill="#E2E8F0"/>
    <path d="M210 494L593 245L984 494" stroke="#F97316" stroke-width="22" stroke-linecap="round" stroke-linejoin="round"/>
    <path d="M276 476L593 272L910 476" stroke="#CBD5E1" stroke-width="10" stroke-linecap="round" opacity=".8"/>
  </g>
  <g opacity=".88">
    <path d="M306 502L468 398L633 502" stroke="#93A4B8" stroke-width="9" stroke-linecap="round"/>
    <path d="M487 502L638 405L791 502" stroke="#93A4B8" stroke-width="9" stroke-linecap="round"/>
    <path d="M671 502L797 422L925 502" stroke="#93A4B8" stroke-width="9" stroke-linecap="round"/>
  </g>
  <g transform="translate(720 374)">
    <rect x="92" y="114" width="24" height="74" rx="10" fill="#1E293B"/>
    <rect x="146" y="114" width="24" height="74" rx="10" fill="#1E293B"/>
    <rect x="83" y="185" width="43" height="18" rx="9" fill="#111827"/>
    <rect x="137" y="185" width="43" height="18" rx="9" fill="#111827"/>
    <path d="M78 92C91 74 103 66 132 66C160 66 175 78 187 95L171 132H94L78 92Z" fill="#0F766E"/>
    <circle cx="128" cy="44" r="26" fill="#F8C99B"/>
    <path d="M103 40C108 17 128 7 148 17C160 23 164 34 162 47C148 42 134 34 120 33C113 33 107 36 103 40Z" fill="#334155"/>
    <rect x="190" y="35" width="145" height="16" rx="8" transform="rotate(29 190 35)" fill="#F97316"/>
    <rect x="285" y="87" width="15" height="104" rx="7.5" transform="rotate(29 285 87)" fill="#475569"/>
  </g>
  <g transform="translate(184 148)">
    <rect x="0" y="0" width="358" height="170" rx="26" fill="white" opacity=".92"/>
    <rect x="28" y="32" width="78" height="14" rx="7" fill="#F97316"/>
    <rect x="28" y="64" width="250" height="18" rx="9" fill="#1E293B" opacity=".92"/>
    <rect x="28" y="96" width="300" height="12" rx="6" fill="#64748B" opacity=".65"/>
    <rect x="28" y="121" width="230" height="12" rx="6" fill="#64748B" opacity=".45"/>
  </g>
</svg>
